<svg xmlns="http://www.w3.org/2000/svg" viewBox="0 0 1440 320"><path fill="#0077c0" fill-opacity="1" d="M0,64L6.2,58.7C12.3,53,25,43,37,48C49.2,53,62,75,74,69.3C86.2,64,98,32,111,53.3C123.1,75,135,149,148,186.7C160,224,172,224,185,197.3C196.9,171,209,117,222,117.3C233.8,117,246,171,258,186.7C270.8,203,283,181,295,181.3C307.7,181,320,203,332,224C344.6,245,357,267,369,282.7C381.5,299,394,309,406,272C418.5,235,431,149,443,106.7C455.4,64,468,64,480,96C492.3,128,505,192,517,197.3C529.2,203,542,149,554,138.7C566.2,128,578,160,591,165.3C603.1,171,615,149,628,154.7C640,160,652,192,665,202.7C676.9,213,689,203,702,170.7C713.8,139,726,85,738,74.7C750.8,64,763,96,775,128C787.7,160,800,192,812,213.3C824.6,235,837,245,849,250.7C861.5,256,874,256,886,250.7C898.5,245,911,235,923,240C935.4,245,948,267,960,277.3C972.3,288,985,288,997,256C1009.2,224,1022,160,1034,122.7C1046.2,85,1058,75,1071,69.3C1083.1,64,1095,64,1108,69.3C1120,75,1132,85,1145,74.7C1156.9,64,1169,32,1182,26.7C1193.8,21,1206,43,1218,53.3C1230.8,64,1243,64,1255,64C1267.7,64,1280,64,1292,85.3C1304.6,107,1317,149,1329,186.7C1341.5,224,1354,256,1366,234.7C1378.5,213,1391,139,1403,128C1415.4,117,1428,171,1434,197.3L1440,224L1440,0L1433.8,0C1427.7,0,1415,0,1403,0C1390.8,0,1378,0,1366,0C1353.8,0,1342,0,1329,0C1316.9,0,1305,0,1292,0C1280,0,1268,0,1255,0C1243.1,0,1231,0,1218,0C1206.2,0,1194,0,1182,0C1169.2,0,1157,0,1145,0C1132.3,0,1120,0,1108,0C1095.4,0,1083,0,1071,0C1058.5,0,1046,0,1034,0C1021.5,0,1009,0,997,0C984.6,0,972,0,960,0C947.7,0,935,0,923,0C910.8,0,898,0,886,0C873.8,0,862,0,849,0C836.9,0,825,0,812,0C800,0,788,0,775,0C763.1,0,751,0,738,0C726.2,0,714,0,702,0C689.2,0,677,0,665,0C652.3,0,640,0,628,0C615.4,0,603,0,591,0C578.5,0,566,0,554,0C541.5,0,529,0,517,0C504.6,0,492,0,480,0C467.7,0,455,0,443,0C430.8,0,418,0,406,0C393.8,0,382,0,369,0C356.9,0,345,0,332,0C320,0,308,0,295,0C283.1,0,271,0,258,0C246.2,0,234,0,222,0C209.2,0,197,0,185,0C172.3,0,160,0,148,0C135.4,0,123,0,111,0C98.5,0,86,0,74,0C61.5,0,49,0,37,0C24.6,0,12,0,6,0L0,0Z"></path></svg>
